<?xml version="1.0" encoding="UTF-8" standalone="no"?>
<!-- Created with Inkscape (http://www.inkscape.org/) -->

<svg
   width="25.927385mm"
   height="25.565704mm"
   viewBox="0 0 25.927385 25.565704"
   version="1.1"
   id="svg40042"
   inkscape:version="1.1.2 (0a00cf5339, 2022-02-04)"
   sodipodi:docname="production.svg"
   xmlns:inkscape="http://www.inkscape.org/namespaces/inkscape"
   xmlns:sodipodi="http://sodipodi.sourceforge.net/DTD/sodipodi-0.dtd"
   xmlns="http://www.w3.org/2000/svg"
   xmlns:svg="http://www.w3.org/2000/svg">
  <sodipodi:namedview
     id="namedview40044"
     pagecolor="#505050"
     bordercolor="#eeeeee"
     borderopacity="1"
     inkscape:pageshadow="0"
     inkscape:pageopacity="0"
     inkscape:pagecheckerboard="0"
     inkscape:document-units="mm"
     showgrid="false"
     inkscape:zoom="3.6203867"
     inkscape:cx="89.078882"
     inkscape:cy="89.907523"
     inkscape:window-width="1920"
     inkscape:window-height="1006"
     inkscape:window-x="1920"
     inkscape:window-y="0"
     inkscape:window-maximized="1"
     inkscape:current-layer="layer1" />
  <defs
     id="defs40039" />
  <g
     inkscape:label="Layer 1"
     inkscape:groupmode="layer"
     id="layer1"
     transform="translate(-32.683262,-94.574431)">
    <path
       style="fill:none;stroke:#fefefe;stroke-width:0.264583px;stroke-linecap:butt;stroke-linejoin:miter;stroke-opacity:0.43123427"
       d="m 35.488477,94.729108 5.183873,-0.02183 0.07279,13.002452 7.66214,-3.89578 0.0573,3.96126 6.339896,-3.64958 v 0 l 3.673377,3.58838 -0.11083,12.29346 -25.54333,-0.0728 -0.0081,-11.02279 2.693031,-2.81301 z"
       id="path40340"
       sodipodi:nodetypes="ccccccccccccc" />
    <rect
       style="fill:none;fill-opacity:0.698039;stroke:#fefefe;stroke-width:0.180152;stroke-linecap:round;stroke-linejoin:round;stroke-opacity:0.43123427"
       id="rect41553"
       width="3.248703"
       height="6.239038"
       x="47.829697"
       y="109.63811" />
    <rect
       style="fill:none;fill-opacity:0.698039;stroke:#fefefe;stroke-width:0.185717;stroke-linecap:round;stroke-linejoin:round;stroke-opacity:0.43123427"
       id="rect41555"
       width="3.1611645"
       height="6.2165666"
       x="52.074486"
       y="109.65559" />
    <path
       style="fill:#d0d7ff;fill-opacity:0.38925639;stroke:#fefefe;stroke-width:0.171035;stroke-linecap:round;stroke-linejoin:round;stroke-opacity:0.43123427"
       d="m 160.9867,452.83183 -36.35964,-0.0621 v -20.40771 -20.40771 l 5.07348,-5.3034 5.07347,-5.30339 0.008,-21.356 0.008,-21.356 h 9.15632 9.15632 l 0.15082,24.59312 c 0.083,13.52621 0.19329,24.63558 0.24519,24.68747 0.0519,0.0519 6.3995,-3.11324 14.1058,-7.03365 7.7063,-3.9204 14.20202,-7.2008 14.43494,-7.28977 0.39762,-0.15189 0.42349,0.29064 0.42349,7.24495 0,4.07369 0.0951,7.40671 0.21123,7.40671 0.11618,0 5.53383,-3.069 12.03922,-6.82001 6.50539,-3.75101 11.99908,-6.82736 12.2082,-6.83634 0.20912,-0.009 3.33136,2.87514 6.93831,6.40915 l 6.5581,6.42548 -0.21353,20.31489 c -0.11744,11.17319 -0.21777,21.43109 -0.22297,22.79534 l -0.009,2.48044 -11.31323,-0.0597 c -6.22228,-0.0328 -27.67507,-0.0876 -47.67288,-0.12178 z m 32.55054,-26.41032 c 0.0453,-8.62373 -0.0135,-12.04304 -0.21113,-12.28121 -0.21867,-0.26348 -1.56146,-0.33006 -6.65714,-0.33006 h -6.38322 v 12.18038 c 0,6.69921 0.0743,12.25472 0.1652,12.34558 0.0909,0.0909 3.05831,0.13623 6.59434,0.10083 l 6.42915,-0.0644 z m 15.51852,11.74206 c 0.19763,-0.23812 0.25644,-3.62597 0.21113,-12.16021 l -0.0628,-11.83013 -6.47335,-0.0644 -6.47335,-0.0645 v 11.93427 c 0,8.95955 0.0724,12.00666 0.2904,12.22467 0.44707,0.44708 12.13479,0.40999 12.50799,-0.0397 z"
       id="path42607"
       transform="scale(0.26458333)" />
  </g>
</svg>
